{"title":"RolePlay xXx Mom And Son Incest Forbidden Sex@Mastitorrents","uid":6085942,"size":388083915,"categoryP":"porn","categoryS":"movie_clips","magnet":"?xt=urn:btih:57d91b34cd8ca62b9b4e271a8d0de0ac44f42fc8&amp;dn=RolePlay+xXx+Mom+And+Son+Incest+Forbidden+Sex%40Mastitorrents&amp;tr=udp%3A%2F%2Ftracker.openbittorrent.com%3A80&amp;tr=udp%3A%2F%2Fopen.demonii.com%3A1337&amp;tr=udp%3A%2F%2Ftracker.coppersurfer.tk%3A6969&amp;tr=udp%3A%2F%2Fexodus.desync.com%3A6969","seeders":13,"leechers":2,"uploader":"amanrulz","files":1,"time":1294327610,"description":"mastitorrents.com\n &lt;a href=&quot;\nhttp://mastitorrents.com/forums/index.php&quot; rel=&quot;nofollow&quot; target=&quot;_NEW&quot;&gt;\nhttp://mastitorrents.com/forums/index.php&lt;/a&gt;\n\nBobby comes home and his mother Raquel immediately calls him into their home office. She has found a video on their computer that she wants to know about. Bobby explains that it's a video of his friend Eddie and his mother. Raquel wants to know what exactly they are doing in the video. So Bobby fast forwards the video and shows Raquel that his friend and his mother are having sex. Raquel is at first shocked to see this act of inc*#t but Bobby calms her down and gets her to understand that yes, they are mother and son but they are also two consenting adults. Raquel leaves the room but returns later with a glass of wine and smoking her cigarette. She sees Bobby watching the video and asks him if it is turning him on to watch his friend Eddie fuck his own mother. Bobby admits that it does. Raquel asks if he thinks Eddies mom is better looking than she is. Bobby says no way, Eddie's mom is a &quot;7 &quot;but Raquel is a definite &quot;10&quot;. Raquel offers to give her son a &quot;dance&quot; because she thinks they are close like Eddie and his mom are. They both go downstairs and Raquel begins to do a sexy strip tease for Bobby while smoking . Raquel strips down to nude and then gives her son a &quot; lap dance&quot; Bobby is going crazy with lust. Raquel takes down his pants and begins to stroke and suck him until Bobby cums in her cum hungry mouth. Now Raquel leads her son to the bedroom. She wants to feel his hard cock inside of her so she mounts him and begins to ride him hard to a fierce orgasm. Bobby is ready to cum again but he wants to do it in his mom's ass. He takes out some lube and with his finger he lubes her ass up and finger bangs her ass hole. When Raquel is ready for him Bobby shoves his cock up her ass. Bobby pounds his mom's ass until his balls explode into her tight ass and gives her a fantastic anal cream pie. ( My thanks to a very good customer &quot;Len&quot; for ordering this custom video. The model for this video is Raquel Amato. She has recently shot for Reality Kings, Bang Bro's and Over 40 Magazine. She is available for custom videos)\n\nGeneral\nComplete name : RolePlay - Mom And Son Incest Forbidden Sex.wmv\nFormat : Windows Media\nFile size : 370 MiB\nDuration : 29mn 21s\nOverall bit rate mode : Constant\nOverall bit rate : 1 762 Kbps\nMaximum Overall bit rate : 1 770 Kbps\nEncoded date : UTC 2010-09-14 01:52:10.790\n\nVideo\nID : 1\nFormat : VC-1\nFormat profile : AP@L1\nCodec ID : WVC1\nCodec ID/Hint : Microsoft\nDescription of the codec : Windows Media Video 9 Advanced Profile\nDuration : 29mn 21s\nBit rate mode : Constant\nBit rate : 1 500 Kbps\nWidth : 720 pixels\nHeight : 480 pixels\nDisplay aspect ratio : 3:2\nFrame rate : 29.970 fps\nStandard : NTSC\nChroma subsampling : 4:2:0\nBit depth : 8 bits\nScan type : Progressive\nCompression mode : Lossy\nBits/(Pixel*Frame) : 0.145\nStream size : 315 MiB (85%)\nLanguage : English (US)\n\nAudio\nID : 2\nFormat : WMA\nFormat profile : Pro\nCodec ID : 162\nCodec ID/Info : Windows Media Audio\nDescription of the codec : Windows Media Audio 10 Professional - 256 kbps, 48 kHz, 2 channel 24 bit 1-pass CBR\nDuration : 29mn 21s\nBit rate mode : Constant\nBit rate : 256 Kbps\nChannel(s) : 2 channels\nSampling rate : 48.0 KHz\nBit depth : 24 bits\nStream size : 53.8 MiB (15%)\nLanguage : English (US) ","torrent":{"xt":"urn:btih:57d91b34cd8ca62b9b4e271a8d0de0ac44f42fc8","amp;dn":"RolePlay+xXx+Mom+And+Son+Incest+Forbidden+Sex%40Mastitorrents","amp;tr":["udp%3A%2F%2Ftracker.openbittorrent.com%3A80","udp%3A%2F%2Fopen.demonii.com%3A1337","udp%3A%2F%2Ftracker.coppersurfer.tk%3A6969","udp%3A%2F%2Fexodus.desync.com%3A6969"],"infoHash":"57d91b34cd8ca62b9b4e271a8d0de0ac44f42fc8","infoHashBuffer":{"type":"Buffer","data":[87,217,27,52,205,140,166,43,155,78,39,26,141,13,224,172,68,244,47,200]},"announce":[],"urlList":[]}}